<?xml version="1.0" encoding="UTF-8"?>
<svg xmlns="http://www.w3.org/2000/svg" xmlns:xlink="http://www.w3.org/1999/xlink" width="48px" height="48px" viewBox="0 0 48 48" version="1.1">
<g id="surface1">
<path style=" stroke:none;fill-rule:nonzero;fill:rgb(15, 15, 230);fill-opacity:1;" d="M 0 0 L 0 48 L 48 48 L 48 0 Z M 16 38 L 10 38 L 10 16 L 16 16 Z M 13 13.464844 C 11.066406 13.464844 9.5 11.882812 9.5 9.9375 C 9.5 7.988281 11.066406 6.40625 13 6.40625 C 14.933594 6.40625 16.5 7.988281 16.5 9.9375 C 16.5 11.882812 14.933594 13.464844 13 13.464844 Z M 40 38 L 34 38 L 34 26.792969 C 34 20.054688 26 20.566406 26 26.792969 L 26 38 L 20 38 L 20 16 L 26 16 L 26 19.53125 C 28.792969 14.359375 40 13.976562 40 24.480469 Z M 40 38 "/>
</g>
</svg>
